<svg xmlns="http://www.w3.org/2000/svg" version="1.1" xmlns:xlink="http://www.w3.org/1999/xlink" xmlns:svgjs="http://svgjs.dev/svgjs" width="1500" height="1500" viewBox="0 0 1500 1500"><rect width="1500" height="1500" fill="#000000"></rect><g transform="matrix(0.6666666666666666,0,0,0.6666666666666666,249.39393939393938,635.957289585953)"><svg viewBox="0 0 396 91" data-background-color="#ffffff" preserveAspectRatio="xMidYMid meet" height="344" width="1500" xmlns="http://www.w3.org/2000/svg" xmlns:xlink="http://www.w3.org/1999/xlink"><g id="tight-bounds" transform="matrix(1,0,0,1,0.2400000000000091,-0.24758729210054753)"><svg viewBox="0 0 395.52 91.4951745842011" height="91.4951745842011" width="395.52"><g><svg viewBox="0 0 529.3524599352048 122.45447951645399" height="91.4951745842011" width="395.52"><g transform="matrix(1,0,0,1,133.8324599352048,0)"><svg viewBox="0 0 395.52 122.45447951645399" height="122.45447951645399" width="395.52"><g id="textblocktransform"><svg viewBox="0 0 395.52 122.45447951645399" height="122.45447951645399" width="395.52" id="textblock"><g><svg viewBox="0 0 395.52 122.45447951645399" height="122.45447951645399" width="395.52"><g transform="matrix(1,0,0,1,0,0)"><svg width="395.52" viewBox="4 -35.01 145.4 45.019999999999996" height="122.45447951645399" data-palette-color="#919591"><path d="M7.01 0L4 0 4-35.01 7.01-35.01 7.01 0ZM30.22-6.86L30.22-6.86Q30.22-5.35 29.65-4 29.07-2.66 28.07-1.66 27.07-0.66 25.73-0.09 24.39 0.49 22.87 0.49L22.87 0.49 20.87 0.49Q19.36 0.49 18.02-0.09 16.67-0.66 15.67-1.66 14.67-2.66 14.1-4 13.52-5.35 13.52-6.86L13.52-6.86 13.52-18.14Q13.52-19.65 14.1-21 14.67-22.34 15.67-23.34 16.67-24.34 18.02-24.91 19.36-25.49 20.87-25.49L20.87-25.49 22.87-25.49Q24.39-25.49 25.73-24.91 27.07-24.34 28.07-23.34 29.07-22.34 29.65-21 30.22-19.65 30.22-18.14L30.22-18.14 30.22-6.86ZM27.22-6.69L27.22-18.31Q27.22-19.21 26.88-20.01 26.54-20.8 25.95-21.39 25.36-21.97 24.57-22.31 23.78-22.66 22.87-22.66L22.87-22.66 20.87-22.66Q19.97-22.66 19.17-22.31 18.38-21.97 17.8-21.39 17.21-20.8 16.87-20.01 16.53-19.21 16.53-18.31L16.53-18.31 16.53-6.69Q16.53-5.79 16.87-4.99 17.21-4.2 17.8-3.61 18.38-3.03 19.17-2.69 19.97-2.34 20.87-2.34L20.87-2.34 22.87-2.34Q23.78-2.34 24.57-2.69 25.36-3.03 25.95-3.61 26.54-4.2 26.88-4.99 27.22-5.79 27.22-6.69L27.22-6.69ZM52.92-6.86L52.92-6.86Q52.92-5.35 52.35-4 51.78-2.66 50.78-1.66 49.78-0.66 48.43-0.09 47.09 0.49 45.58 0.49L45.58 0.49 43.57 0.49Q42.06 0.49 40.72-0.09 39.37-0.66 38.37-1.66 37.37-2.66 36.8-4 36.23-5.35 36.23-6.86L36.23-6.86 36.23-18.14Q36.23-19.65 36.8-21 37.37-22.34 38.37-23.34 39.37-24.34 40.72-24.91 42.06-25.49 43.57-25.49L43.57-25.49 45.58-25.49Q47.09-25.49 48.43-24.91 49.78-24.34 50.78-23.34 51.78-22.34 52.35-21 52.92-19.65 52.92-18.14L52.92-18.14 52.92-17.14 49.92-16.65 49.92-18.31Q49.92-19.21 49.58-20.01 49.24-20.8 48.65-21.39 48.07-21.97 47.27-22.31 46.48-22.66 45.58-22.66L45.58-22.66 43.57-22.66Q42.67-22.66 41.88-22.31 41.08-21.97 40.5-21.39 39.91-20.8 39.57-20.01 39.23-19.21 39.23-18.31L39.23-18.31 39.23-6.69Q39.23-5.79 39.57-4.99 39.91-4.2 40.5-3.61 41.08-3.03 41.88-2.69 42.67-2.34 43.57-2.34L43.57-2.34 45.58-2.34Q46.48-2.34 47.27-2.69 48.07-3.03 48.65-3.61 49.24-4.2 49.58-4.99 49.92-5.79 49.92-6.69L49.92-6.69 49.92-8.35 52.92-7.86 52.92-6.86ZM75.63 0L74.63 0 72.97-2.49Q71.94-1.15 70.4-0.33 68.86 0.49 67.03 0.49L67.03 0.49 66.28 0.49Q64.76 0.49 63.42-0.09 62.08-0.66 61.08-1.66 60.08-2.66 59.5-4 58.93-5.35 58.93-6.86L58.93-6.86 58.93-7.1Q58.93-8.62 59.5-9.96 60.08-11.3 61.08-12.3 62.08-13.31 63.42-13.88 64.76-14.45 66.28-14.45L66.28-14.45 72.62-14.45 72.62-18.31Q72.62-19.21 72.28-20.01 71.94-20.8 71.35-21.39 70.77-21.97 69.98-22.31 69.18-22.66 68.28-22.66L68.28-22.66 66.52-22.66Q65.62-22.66 64.82-22.31 64.03-21.97 63.44-21.39 62.86-20.8 62.52-20.01 62.18-19.21 62.18-18.31L62.18-18.31 62.18-17.41 59.17-17.9 59.17-18.14Q59.17-19.65 59.75-21 60.32-22.34 61.32-23.34 62.32-24.34 63.66-24.91 65.01-25.49 66.52-25.49L66.52-25.49 68.28-25.49Q69.79-25.49 71.14-24.91 72.48-24.34 73.48-23.34 74.48-22.34 75.05-21 75.63-19.65 75.63-18.14L75.63-18.14 75.63 0ZM72.62-6.69L72.62-12.11 66.28-12.11Q65.37-12.11 64.58-11.77 63.79-11.43 63.2-10.83 62.61-10.23 62.27-9.44 61.93-8.64 61.93-7.74L61.93-7.74 61.93-6.69Q61.93-5.79 62.27-4.99 62.61-4.2 63.2-3.61 63.79-3.03 64.58-2.69 65.37-2.34 66.28-2.34L66.28-2.34 68.28-2.34Q69.18-2.34 69.98-2.69 70.77-3.03 71.35-3.61 71.94-4.2 72.28-4.99 72.62-5.79 72.62-6.69L72.62-6.69ZM93.47 0L90.74 0Q89.37 0 88.16-0.51 86.95-1.03 86.06-1.93 85.17-2.83 84.65-4.03 84.12-5.22 84.12-6.59L84.12-6.59 84.12-22.14 79.63-22.14 79.63-25 84.12-25 84.12-31.01 87.12-31.49 87.12-25 93.47-25 93.47-22.14 87.12-22.14 87.12-6.45Q87.12-5.69 87.4-5.04 87.69-4.39 88.17-3.91 88.66-3.42 89.32-3.14 89.98-2.86 90.74-2.86L90.74-2.86 93.47-2.86 93.47 0ZM115.69-6.86L115.69-6.86Q115.69-5.35 115.11-4 114.54-2.66 113.54-1.66 112.54-0.66 111.19-0.09 109.85 0.49 108.34 0.49L108.34 0.49 106.34 0.49Q104.82 0.49 103.48-0.09 102.14-0.66 101.13-1.66 100.13-2.66 99.56-4 98.99-5.35 98.99-6.86L98.99-6.86 98.99-18.14Q98.99-19.65 99.56-21 100.13-22.34 101.13-23.34 102.14-24.34 103.48-24.91 104.82-25.49 106.34-25.49L106.34-25.49 108.34-25.49Q109.85-25.49 111.19-24.91 112.54-24.34 113.54-23.34 114.54-22.34 115.11-21 115.69-19.65 115.69-18.14L115.69-18.14 115.69-12.26 101.99-12.26 101.99-6.69Q101.99-5.79 102.33-4.99 102.67-4.2 103.26-3.61 103.84-3.03 104.64-2.69 105.43-2.34 106.34-2.34L106.34-2.34 108.34-2.34Q109.24-2.34 110.03-2.69 110.83-3.03 111.41-3.61 112-4.2 112.34-4.99 112.68-5.79 112.68-6.69L112.68-6.69 112.68-8.35 115.69-7.86 115.69-6.86ZM112.68-14.6L112.68-18.31Q112.68-19.21 112.34-20.01 112-20.8 111.41-21.39 110.83-21.97 110.03-22.31 109.24-22.66 108.34-22.66L108.34-22.66 106.34-22.66Q105.43-22.66 104.64-22.31 103.84-21.97 103.26-21.39 102.67-20.8 102.33-20.01 101.99-19.21 101.99-18.31L101.99-18.31 101.99-14.6 112.68-14.6ZM125.94-31.01L122.45-31.01 122.45-35.01 125.94-35.01 125.94-31.01ZM125.69 0L122.69 0 122.69-25 125.69-25 125.69 0ZM149.4-6.86L149.4-6.86Q149.4-5.35 148.82-4 148.25-2.66 147.25-1.66 146.25-0.66 144.9-0.09 143.56 0.49 142.05 0.49L142.05 0.49 141.29 0.49Q139.61 0.49 138.17-0.2 136.73-0.88 135.7-2.1L135.7-2.1 135.7 10.01 132.7 10.01 132.7-25 133.7-25 135.33-22.46Q136.36-23.85 137.91-24.67 139.46-25.49 141.29-25.49L141.29-25.49 142.05-25.49Q143.56-25.49 144.9-24.91 146.25-24.34 147.25-23.34 148.25-22.34 148.82-21 149.4-19.65 149.4-18.14L149.4-18.14 149.4-6.86ZM146.39-6.69L146.39-18.31Q146.39-19.21 146.05-20.01 145.71-20.8 145.12-21.39 144.54-21.97 143.74-22.31 142.95-22.66 142.05-22.66L142.05-22.66 140.05-22.66Q139.14-22.66 138.35-22.31 137.56-21.97 136.97-21.39 136.38-20.8 136.04-20.01 135.7-19.21 135.7-18.31L135.7-18.31 135.7-6.69Q135.7-5.79 136.04-4.99 136.38-4.2 136.97-3.61 137.56-3.03 138.35-2.69 139.14-2.34 140.05-2.34L140.05-2.34 142.05-2.34Q142.95-2.34 143.74-2.69 144.54-3.03 145.12-3.61 145.71-4.2 146.05-4.99 146.39-5.79 146.39-6.69L146.39-6.69Z" opacity="1" transform="matrix(1,0,0,1,0,0)" fill="#ffffff" class="wordmark-text-0" data-fill-palette-color="primary" id="text-0"></path></svg></g></svg></g></svg></g></svg></g><g transform="matrix(1,0,0,1,0,8.765291643787776)"><svg viewBox="0 0 104.92389622887842 104.92389622887843" height="104.92389622887843" width="104.92389622887842"><g><svg></svg></g><g id="icon-0"><svg viewBox="0 0 104.92389622887842 104.92389622887843" height="104.92389622887843" width="104.92389622887842"><g><path transform="scale(1.04924,1.04924)" d="M30 100c-16.569 0-30-13.431-30-30v-40c0-16.569 13.431-30 30-30h40c16.569 0 30 13.431 30 30v40c0 16.569-13.431 30-30 30z" fill="#ffffff" fill-rule="nonzero" stroke="none" stroke-width="1" stroke-linecap="butt" stroke-linejoin="miter" stroke-miterlimit="10" stroke-dasharray="" stroke-dashoffset="0" font-family="none" font-weight="none" font-size="none" text-anchor="none" style="mix-blend-mode: normal" data-fill-palette-color="accent"></path></g><g transform="matrix(1,0,0,1,29.311862477884496,20.984779245775687)"><svg viewBox="0 0 46.30017127310943 62.95433773732706" height="62.95433773732706" width="46.30017127310943"><g><svg xmlns="http://www.w3.org/2000/svg" xmlns:xlink="http://www.w3.org/1999/xlink" version="1.1" x="0" y="0" viewBox="14.146 1.25 71.70700004761639 97.5" enable-background="new 0 0 100 100" xml:space="preserve" height="62.95433773732706" width="46.30017127310943" class="icon-dxe-0" data-fill-palette-color="quaternary" id="dxe-0"><path d="M50 98.75C29.896 98.75 14.146 89.801 14.146 78.376 14.146 73.407 17.008 68.847 22.423 65.186A1.46 1.46 0 0 1 24.058 67.606C19.483 70.697 17.064 74.421 17.064 78.377 17.065 88 31.839 95.831 50 95.831 68.16 95.831 82.934 88 82.934 78.376 82.934 74.421 80.516 70.696 75.94 67.605A1.46 1.46 0 1 1 77.574 65.185C82.99 68.846 85.853 73.407 85.853 78.375 85.854 89.801 70.104 98.75 50 98.75M50 88.433C36.2 88.433 26.185 83.481 26.185 76.657 26.185 72.757 29.362 69.423 35.131 67.27A1.458 1.458 0 1 1 36.151 70.003C31.606 71.699 29.104 74.063 29.104 76.655 29.104 81.621 38.282 85.512 50 85.512S70.897 81.62 70.897 76.655C70.897 74.06 68.392 71.699 63.849 70.003A1.456 1.456 0 0 1 62.994 68.126 1.456 1.456 0 0 1 64.869 67.27C70.639 69.422 73.816 72.756 73.816 76.657 73.816 83.48 63.8 88.433 50 88.433M50 81.555C44.454 81.555 39.943 77.043 39.943 71.497V68.021C39.943 65.104 38.052 60.821 35.895 58.853L35.893 58.852C35.437 58.435 31.442 54.568 31.442 47.42 31.442 37.131 39.737 28.762 49.931 28.762 60.182 28.762 68.523 37.132 68.523 47.42 68.523 54.524 64.556 58.412 64.105 58.832 61.945 60.809 60.057 65.099 60.057 68.018V71.496C60.058 77.043 55.545 81.555 50 81.555M50 24.805C43.505 24.805 38.223 19.521 38.223 13.027S43.505 1.25 50 1.25 61.777 6.532 61.777 13.027 56.495 24.805 50 24.805" fill="#000000" data-fill-palette-color="quaternary"></path></svg></g></svg></g></svg></g></svg></g></svg></g><defs></defs></svg><rect width="395.52" height="91.4951745842011" fill="none" stroke="none" visibility="hidden"></rect></g></svg></g></svg>